<?xml version="1.0" encoding="UTF-8"?>
<!--
  icons.svg — Lucide icons sprite local (Metal Engineers ERP)
  ──────────────────────────────────────────────────────────────────────
  Uso:
    <svg class="ico"><use href="/lib/icons.svg#layout-dashboard"></use></svg>
  Helper:
    icon('layout-dashboard', { size: 17 }) en ui.js
  Atributos por defecto en cada <symbol>:
    viewBox="0 0 24 24" fill="none" stroke="currentColor"
    stroke-width="2" stroke-linecap="round" stroke-linejoin="round"
  Fuente: https://lucide.dev (ISC license)
  ──────────────────────────────────────────────────────────────────────
-->
<svg xmlns="http://www.w3.org/2000/svg" style="display:none" aria-hidden="true">

  <!-- ═══ Navigation / Modules ═══ -->
  <symbol id="layout-dashboard" viewBox="0 0 24 24" fill="none" stroke="currentColor" stroke-width="2" stroke-linecap="round" stroke-linejoin="round">
    <rect x="3" y="3" width="7" height="9" rx="1"/>
    <rect x="14" y="3" width="7" height="5" rx="1"/>
    <rect x="14" y="12" width="7" height="9" rx="1"/>
    <rect x="3" y="16" width="7" height="5" rx="1"/>
  </symbol>

  <symbol id="clipboard-check" viewBox="0 0 24 24" fill="none" stroke="currentColor" stroke-width="2" stroke-linecap="round" stroke-linejoin="round">
    <rect x="8" y="2" width="8" height="4" rx="1" ry="1"/>
    <path d="M16 4h2a2 2 0 0 1 2 2v14a2 2 0 0 1-2 2H6a2 2 0 0 1-2-2V6a2 2 0 0 1 2-2h2"/>
    <path d="m9 14 2 2 4-4"/>
  </symbol>

  <symbol id="dollar-sign" viewBox="0 0 24 24" fill="none" stroke="currentColor" stroke-width="2" stroke-linecap="round" stroke-linejoin="round">
    <line x1="12" y1="2" x2="12" y2="22"/>
    <path d="M17 5H9.5a3.5 3.5 0 0 0 0 7h5a3.5 3.5 0 0 1 0 7H6"/>
  </symbol>

  <symbol id="credit-card" viewBox="0 0 24 24" fill="none" stroke="currentColor" stroke-width="2" stroke-linecap="round" stroke-linejoin="round">
    <rect x="2" y="5" width="20" height="14" rx="2"/>
    <line x1="2" y1="10" x2="22" y2="10"/>
  </symbol>

  <symbol id="package" viewBox="0 0 24 24" fill="none" stroke="currentColor" stroke-width="2" stroke-linecap="round" stroke-linejoin="round">
    <path d="m7.5 4.27 9 5.15"/>
    <path d="M21 8a2 2 0 0 0-1-1.73l-7-4a2 2 0 0 0-2 0l-7 4A2 2 0 0 0 3 8v8a2 2 0 0 0 1 1.73l7 4a2 2 0 0 0 2 0l7-4A2 2 0 0 0 21 16Z"/>
    <path d="m3.3 7 8.7 5 8.7-5"/>
    <path d="M12 22V12"/>
  </symbol>

  <symbol id="archive" viewBox="0 0 24 24" fill="none" stroke="currentColor" stroke-width="2" stroke-linecap="round" stroke-linejoin="round">
    <rect x="2" y="3" width="20" height="5" rx="1"/>
    <path d="M4 8v11a2 2 0 0 0 2 2h12a2 2 0 0 0 2-2V8"/>
    <line x1="10" y1="12" x2="14" y2="12"/>
  </symbol>

  <symbol id="truck" viewBox="0 0 24 24" fill="none" stroke="currentColor" stroke-width="2" stroke-linecap="round" stroke-linejoin="round">
    <path d="M14 18V6a2 2 0 0 0-2-2H4a2 2 0 0 0-2 2v11a1 1 0 0 0 1 1h2"/>
    <path d="M15 18H9"/>
    <path d="M19 18h2a1 1 0 0 0 1-1v-3.65a1 1 0 0 0-.22-.624l-3.48-4.35A1 1 0 0 0 17.52 8H14"/>
    <circle cx="17" cy="18" r="2"/>
    <circle cx="7" cy="18" r="2"/>
  </symbol>

  <symbol id="briefcase" viewBox="0 0 24 24" fill="none" stroke="currentColor" stroke-width="2" stroke-linecap="round" stroke-linejoin="round">
    <rect x="2" y="7" width="20" height="14" rx="2" ry="2"/>
    <path d="M16 21V5a2 2 0 0 0-2-2h-4a2 2 0 0 0-2 2v16"/>
  </symbol>

  <symbol id="users" viewBox="0 0 24 24" fill="none" stroke="currentColor" stroke-width="2" stroke-linecap="round" stroke-linejoin="round">
    <path d="M16 21v-2a4 4 0 0 0-4-4H6a4 4 0 0 0-4 4v2"/>
    <circle cx="9" cy="7" r="4"/>
    <path d="M22 21v-2a4 4 0 0 0-3-3.87"/>
    <path d="M16 3.13a4 4 0 0 1 0 7.75"/>
  </symbol>

  <symbol id="user" viewBox="0 0 24 24" fill="none" stroke="currentColor" stroke-width="2" stroke-linecap="round" stroke-linejoin="round">
    <path d="M20 21v-2a4 4 0 0 0-4-4H8a4 4 0 0 0-4 4v2"/>
    <circle cx="12" cy="7" r="4"/>
  </symbol>

  <symbol id="book-open" viewBox="0 0 24 24" fill="none" stroke="currentColor" stroke-width="2" stroke-linecap="round" stroke-linejoin="round">
    <path d="M2 3h6a4 4 0 0 1 4 4v14a3 3 0 0 0-3-3H2z"/>
    <path d="M22 3h-6a4 4 0 0 0-4 4v14a3 3 0 0 1 3-3h7z"/>
  </symbol>

  <symbol id="settings" viewBox="0 0 24 24" fill="none" stroke="currentColor" stroke-width="2" stroke-linecap="round" stroke-linejoin="round">
    <path d="M19.4 15a1.65 1.65 0 0 0 .33 1.82l.06.06a2 2 0 0 1-2.83 2.83l-.06-.06a1.65 1.65 0 0 0-1.82-.33 1.65 1.65 0 0 0-1 1.51V21a2 2 0 0 1-4 0v-.09A1.65 1.65 0 0 0 9 19.4a1.65 1.65 0 0 0-1.82.33l-.06.06a2 2 0 1 1-2.83-2.83l.06-.06a1.65 1.65 0 0 0 .33-1.82 1.65 1.65 0 0 0-1.51-1H3a2 2 0 1 1 0-4h.09A1.65 1.65 0 0 0 4.6 9a1.65 1.65 0 0 0-.33-1.82l-.06-.06a2 2 0 1 1 2.83-2.83l.06.06a1.65 1.65 0 0 0 1.82.33H9a1.65 1.65 0 0 0 1-1.51V3a2 2 0 1 1 4 0v.09a1.65 1.65 0 0 0 1 1.51 1.65 1.65 0 0 0 1.82-.33l.06-.06a2 2 0 1 1 2.83 2.83l-.06.06a1.65 1.65 0 0 0-.33 1.82V9a1.65 1.65 0 0 0 1.51 1H21a2 2 0 0 1 0 4h-.09a1.65 1.65 0 0 0-1.51 1z"/>
    <circle cx="12" cy="12" r="3"/>
  </symbol>

  <symbol id="bell" viewBox="0 0 24 24" fill="none" stroke="currentColor" stroke-width="2" stroke-linecap="round" stroke-linejoin="round">
    <path d="M6 8a6 6 0 0 1 12 0c0 7 3 9 3 9H3s3-2 3-9"/>
    <path d="M10.3 21a1.94 1.94 0 0 0 3.4 0"/>
  </symbol>

  <symbol id="home" viewBox="0 0 24 24" fill="none" stroke="currentColor" stroke-width="2" stroke-linecap="round" stroke-linejoin="round">
    <path d="m3 9 9-7 9 7v11a2 2 0 0 1-2 2H5a2 2 0 0 1-2-2z"/>
    <polyline points="9 22 9 12 15 12 15 22"/>
  </symbol>

  <!-- ═══ Actions ═══ -->
  <symbol id="plus" viewBox="0 0 24 24" fill="none" stroke="currentColor" stroke-width="2" stroke-linecap="round" stroke-linejoin="round">
    <line x1="12" y1="5" x2="12" y2="19"/>
    <line x1="5" y1="12" x2="19" y2="12"/>
  </symbol>

  <symbol id="x" viewBox="0 0 24 24" fill="none" stroke="currentColor" stroke-width="2" stroke-linecap="round" stroke-linejoin="round">
    <line x1="18" y1="6" x2="6" y2="18"/>
    <line x1="6" y1="6" x2="18" y2="18"/>
  </symbol>

  <symbol id="check" viewBox="0 0 24 24" fill="none" stroke="currentColor" stroke-width="2" stroke-linecap="round" stroke-linejoin="round">
    <polyline points="20 6 9 17 4 12"/>
  </symbol>

  <symbol id="edit" viewBox="0 0 24 24" fill="none" stroke="currentColor" stroke-width="2" stroke-linecap="round" stroke-linejoin="round">
    <path d="M12 20h9"/>
    <path d="M16.5 3.5a2.121 2.121 0 0 1 3 3L7 19l-4 1 1-4L16.5 3.5z"/>
  </symbol>

  <symbol id="trash" viewBox="0 0 24 24" fill="none" stroke="currentColor" stroke-width="2" stroke-linecap="round" stroke-linejoin="round">
    <polyline points="3 6 5 6 21 6"/>
    <path d="M19 6v14a2 2 0 0 1-2 2H7a2 2 0 0 1-2-2V6m3 0V4a2 2 0 0 1 2-2h4a2 2 0 0 1 2 2v2"/>
    <line x1="10" y1="11" x2="10" y2="17"/>
    <line x1="14" y1="11" x2="14" y2="17"/>
  </symbol>

  <symbol id="search" viewBox="0 0 24 24" fill="none" stroke="currentColor" stroke-width="2" stroke-linecap="round" stroke-linejoin="round">
    <circle cx="11" cy="11" r="8"/>
    <line x1="21" y1="21" x2="16.65" y2="16.65"/>
  </symbol>

  <symbol id="filter" viewBox="0 0 24 24" fill="none" stroke="currentColor" stroke-width="2" stroke-linecap="round" stroke-linejoin="round">
    <polygon points="22 3 2 3 10 12.46 10 19 14 21 14 12.46 22 3"/>
  </symbol>

  <symbol id="download" viewBox="0 0 24 24" fill="none" stroke="currentColor" stroke-width="2" stroke-linecap="round" stroke-linejoin="round">
    <path d="M21 15v4a2 2 0 0 1-2 2H5a2 2 0 0 1-2-2v-4"/>
    <polyline points="7 10 12 15 17 10"/>
    <line x1="12" y1="15" x2="12" y2="3"/>
  </symbol>

  <symbol id="upload" viewBox="0 0 24 24" fill="none" stroke="currentColor" stroke-width="2" stroke-linecap="round" stroke-linejoin="round">
    <path d="M21 15v4a2 2 0 0 1-2 2H5a2 2 0 0 1-2-2v-4"/>
    <polyline points="17 8 12 3 7 8"/>
    <line x1="12" y1="3" x2="12" y2="15"/>
  </symbol>

  <symbol id="log-out" viewBox="0 0 24 24" fill="none" stroke="currentColor" stroke-width="2" stroke-linecap="round" stroke-linejoin="round">
    <path d="M9 21H5a2 2 0 0 1-2-2V5a2 2 0 0 1 2-2h4"/>
    <polyline points="16 17 21 12 16 7"/>
    <line x1="21" y1="12" x2="9" y2="12"/>
  </symbol>

  <symbol id="menu" viewBox="0 0 24 24" fill="none" stroke="currentColor" stroke-width="2" stroke-linecap="round" stroke-linejoin="round">
    <line x1="3" y1="6" x2="21" y2="6"/>
    <line x1="3" y1="12" x2="21" y2="12"/>
    <line x1="3" y1="18" x2="21" y2="18"/>
  </symbol>

  <!-- ═══ Chevrons / Arrows ═══ -->
  <symbol id="chevron-down" viewBox="0 0 24 24" fill="none" stroke="currentColor" stroke-width="2" stroke-linecap="round" stroke-linejoin="round">
    <polyline points="6 9 12 15 18 9"/>
  </symbol>

  <symbol id="chevron-up" viewBox="0 0 24 24" fill="none" stroke="currentColor" stroke-width="2" stroke-linecap="round" stroke-linejoin="round">
    <polyline points="18 15 12 9 6 15"/>
  </symbol>

  <symbol id="chevron-right" viewBox="0 0 24 24" fill="none" stroke="currentColor" stroke-width="2" stroke-linecap="round" stroke-linejoin="round">
    <polyline points="9 18 15 12 9 6"/>
  </symbol>

  <symbol id="chevron-left" viewBox="0 0 24 24" fill="none" stroke="currentColor" stroke-width="2" stroke-linecap="round" stroke-linejoin="round">
    <polyline points="15 18 9 12 15 6"/>
  </symbol>

  <symbol id="arrow-up" viewBox="0 0 24 24" fill="none" stroke="currentColor" stroke-width="2" stroke-linecap="round" stroke-linejoin="round">
    <line x1="12" y1="19" x2="12" y2="5"/>
    <polyline points="5 12 12 5 19 12"/>
  </symbol>

  <symbol id="arrow-down" viewBox="0 0 24 24" fill="none" stroke="currentColor" stroke-width="2" stroke-linecap="round" stroke-linejoin="round">
    <line x1="12" y1="5" x2="12" y2="19"/>
    <polyline points="19 12 12 19 5 12"/>
  </symbol>

  <!-- ═══ Status / Feedback ═══ -->
  <symbol id="alert-triangle" viewBox="0 0 24 24" fill="none" stroke="currentColor" stroke-width="2" stroke-linecap="round" stroke-linejoin="round">
    <path d="m21.73 18-8-14a2 2 0 0 0-3.48 0l-8 14A2 2 0 0 0 4 21h16a2 2 0 0 0 1.73-3Z"/>
    <line x1="12" y1="9" x2="12" y2="13"/>
    <line x1="12" y1="17" x2="12.01" y2="17"/>
  </symbol>

  <symbol id="alert-circle" viewBox="0 0 24 24" fill="none" stroke="currentColor" stroke-width="2" stroke-linecap="round" stroke-linejoin="round">
    <circle cx="12" cy="12" r="10"/>
    <line x1="12" y1="8" x2="12" y2="12"/>
    <line x1="12" y1="16" x2="12.01" y2="16"/>
  </symbol>

  <symbol id="info" viewBox="0 0 24 24" fill="none" stroke="currentColor" stroke-width="2" stroke-linecap="round" stroke-linejoin="round">
    <circle cx="12" cy="12" r="10"/>
    <line x1="12" y1="16" x2="12" y2="12"/>
    <line x1="12" y1="8" x2="12.01" y2="8"/>
  </symbol>

  <symbol id="check-circle" viewBox="0 0 24 24" fill="none" stroke="currentColor" stroke-width="2" stroke-linecap="round" stroke-linejoin="round">
    <path d="M22 11.08V12a10 10 0 1 1-5.93-9.14"/>
    <polyline points="22 4 12 14.01 9 11.01"/>
  </symbol>

  <symbol id="clock" viewBox="0 0 24 24" fill="none" stroke="currentColor" stroke-width="2" stroke-linecap="round" stroke-linejoin="round">
    <circle cx="12" cy="12" r="10"/>
    <polyline points="12 6 12 12 16 14"/>
  </symbol>

  <!-- ═══ Charts / Trends ═══ -->
  <symbol id="bar-chart" viewBox="0 0 24 24" fill="none" stroke="currentColor" stroke-width="2" stroke-linecap="round" stroke-linejoin="round">
    <line x1="12" y1="20" x2="12" y2="10"/>
    <line x1="18" y1="20" x2="18" y2="4"/>
    <line x1="6" y1="20" x2="6" y2="16"/>
  </symbol>

  <symbol id="trending-up" viewBox="0 0 24 24" fill="none" stroke="currentColor" stroke-width="2" stroke-linecap="round" stroke-linejoin="round">
    <polyline points="23 6 13.5 15.5 8.5 10.5 1 18"/>
    <polyline points="17 6 23 6 23 12"/>
  </symbol>

  <symbol id="trending-down" viewBox="0 0 24 24" fill="none" stroke="currentColor" stroke-width="2" stroke-linecap="round" stroke-linejoin="round">
    <polyline points="23 18 13.5 8.5 8.5 13.5 1 6"/>
    <polyline points="17 18 23 18 23 12"/>
  </symbol>

  <!-- ═══ Documents / Misc ═══ -->
  <symbol id="file-text" viewBox="0 0 24 24" fill="none" stroke="currentColor" stroke-width="2" stroke-linecap="round" stroke-linejoin="round">
    <path d="M14 2H6a2 2 0 0 0-2 2v16a2 2 0 0 0 2 2h12a2 2 0 0 0 2-2V8z"/>
    <polyline points="14 2 14 8 20 8"/>
    <line x1="16" y1="13" x2="8" y2="13"/>
    <line x1="16" y1="17" x2="8" y2="17"/>
    <polyline points="10 9 9 9 8 9"/>
  </symbol>

  <symbol id="eye" viewBox="0 0 24 24" fill="none" stroke="currentColor" stroke-width="2" stroke-linecap="round" stroke-linejoin="round">
    <path d="M1 12s4-8 11-8 11 8 11 8-4 8-11 8-11-8-11-8z"/>
    <circle cx="12" cy="12" r="3"/>
  </symbol>

  <symbol id="image" viewBox="0 0 24 24" fill="none" stroke="currentColor" stroke-width="2" stroke-linecap="round" stroke-linejoin="round">
    <rect x="3" y="3" width="18" height="18" rx="2" ry="2"/>
    <circle cx="8.5" cy="8.5" r="1.5"/>
    <polyline points="21 15 16 10 5 21"/>
  </symbol>

  <symbol id="refresh-cw" viewBox="0 0 24 24" fill="none" stroke="currentColor" stroke-width="2" stroke-linecap="round" stroke-linejoin="round">
    <polyline points="23 4 23 10 17 10"/>
    <polyline points="1 20 1 14 7 14"/>
    <path d="M3.51 9a9 9 0 0 1 14.85-3.36L23 10M1 14l4.64 4.36A9 9 0 0 0 20.49 15"/>
  </symbol>

  <symbol id="external-link" viewBox="0 0 24 24" fill="none" stroke="currentColor" stroke-width="2" stroke-linecap="round" stroke-linejoin="round">
    <path d="M18 13v6a2 2 0 0 1-2 2H5a2 2 0 0 1-2-2V8a2 2 0 0 1 2-2h6"/>
    <polyline points="15 3 21 3 21 9"/>
    <line x1="10" y1="14" x2="21" y2="3"/>
  </symbol>

</svg>
